<?xml version="1.0" encoding="utf-8"?>
<svg width="482" height="198" viewBox="0 0 482 198" fill="none" xmlns="http://www.w3.org/2000/svg">
<path d="M5.15829e-05 -43.5883L5.18927e-05 -47.1319C0.295372 -62.4871 1.772 -77.2518 4.72524 -91.7212C6.20187 -99.3988 8.26913 -107.076 10.6317 -114.459C13.2896 -123.022 16.5381 -131.586 20.082 -139.854C23.9212 -148.713 28.351 -157.276 33.0762 -165.545C36.6201 -171.45 40.164 -177.061 44.0032 -182.376L47.8424 -187.692L48.1377 -187.987C52.8629 -194.188 57.8833 -200.389 63.1992 -206L76.1934 -187.987L91.8455 -166.43L92.1408 -166.135L111.337 -139.854L121.673 -125.385C114.585 -115.049 108.679 -103.828 104.544 -91.7212C102.477 -86.1106 101.001 -80.2047 99.5239 -74.0036C97.4566 -64.2589 96.2754 -53.9236 96.2754 -43.5883C96.2753 -33.2531 97.4566 -22.9178 99.5239 -13.1731C103.658 5.43036 111.337 22.8527 121.673 38.2079L122.854 39.9797L124.331 41.7514C133.191 53.8585 143.822 64.1938 155.931 73.0526C168.925 82.5019 183.691 89.8843 199.638 94.609C208.203 97.2666 217.062 99.0384 226.217 99.9243C230.943 100.515 235.963 100.515 240.688 100.515C245.413 100.515 250.434 100.22 255.159 99.9243C264.314 99.0384 273.174 97.2666 281.738 94.609C297.686 89.8843 312.452 82.502 325.446 73.0526C337.554 64.1938 348.186 53.5632 357.046 41.7515L358.522 39.9797L359.703 38.208C370.335 22.8527 378.013 5.43038 381.853 -13.1731C383.92 -22.9178 385.101 -33.253 385.101 -43.5883C385.101 -53.9236 383.92 -64.2589 381.853 -74.0035C380.671 -79.9094 378.899 -85.8153 376.832 -91.7211C372.698 -103.828 366.791 -115.049 359.703 -125.385L370.04 -139.854L389.236 -166.135L389.531 -166.43L405.183 -187.987L418.177 -206C423.493 -200.094 428.514 -194.188 433.239 -187.987L433.534 -187.691L437.373 -182.376C441.213 -177.061 444.756 -171.155 448.3 -165.544C453.025 -157.276 457.455 -148.713 461.295 -139.854C464.838 -131.586 468.087 -123.318 470.745 -114.459C473.107 -107.076 474.879 -99.3987 476.651 -91.7211C479.605 -77.2517 481.081 -62.4871 481.376 -47.1318L481.376 -40.0448C481.081 -16.7166 477.242 6.021 470.745 27.2821C465.134 45.295 457.751 62.422 448.3 78.3679C444.756 84.2737 441.213 89.8843 437.373 95.1996L433.534 100.515C428.809 107.011 423.493 113.212 418.177 119.118C407.25 130.93 395.142 141.856 382.148 151.305C369.154 160.755 355.274 169.023 340.212 175.815C330.762 179.949 321.311 183.788 311.27 186.741C305.069 188.512 298.572 190.284 292.37 191.761C276.718 195.304 260.77 197.076 244.232 197.371L237.144 197.371C220.606 197.076 204.659 195.304 189.007 191.76C182.51 190.284 176.308 188.808 170.106 186.741C160.065 183.788 150.615 179.949 141.164 175.815C126.398 169.023 112.518 160.755 99.2286 151.305C86.2343 141.856 74.1261 130.93 63.1991 119.118C57.8833 113.212 52.5675 107.011 47.8424 100.515L44.0032 95.1996C40.1639 89.8843 36.6201 83.9784 33.0762 78.3678C23.6259 62.422 16.2428 45.295 10.6317 27.2821C4.1346 6.02095 0.295368 -16.7167 5.12731e-05 -40.0448L5.15829e-05 -43.5883Z" fill="white" fill-opacity="0.2"/>
</svg>
